# xmcd
#
# Track frame offsets: 
#        150
#        41640
#        97485
#        152997
#        228109
#
# Disc length: 3701 seconds
#
# Revision: 3
# Processed by: cddbd v1.5.2PL0 Copyright (c) Steve Scherf et al.
# Submitted via: ExactAudioCopyFreeDBPlugin 1.0
#
DISCID=3c0e7305
DTITLE=Harvey Summers - Chillout Moods Bonus CD - Feng Shui - Balance 
DTITLE=Through Harmony
DYEAR=1900
DGENRE=
TTITLE0=Twilight
TTITLE1=Winter's Garden
TTITLE2=Fountain Of Dreams
TTITLE3=The Magpie And The Statue
TTITLE4=Courting Magic
EXTD=
EXTT0=
EXTT1=
EXTT2=
EXTT3=
EXTT4=
PLAYORDER=
